<svg id="Layer_1" data-name="Layer 1" xmlns="http://www.w3.org/2000/svg" viewBox="0 0 138.91 5.63"><defs><style>.cls-1{fill:#916338;}</style></defs><title>divider3</title><rect class="cls-1" x="2.56" y="2.42" width="115.96" height="0.8"/><path class="cls-1" d="M203.73,7h-5.66a.36.36,0,0,0-.36.36.36.36,0,0,0,.36.36h5.66a.36.36,0,0,0,.36-.36A.36.36,0,0,0,203.73,7Z" transform="translate(-65.17 -4.59)"/><path class="cls-1" d="M184.85,8.49a7.64,7.64,0,0,1,1.39,1.45.35.35,0,0,0,.26.15.39.39,0,0,0,.29-.13,6,6,0,0,1,1.93-1.35,8.33,8.33,0,0,1,3.74-.85h1.92a1,1,0,0,0,.6.6,1,1,0,0,0,1.32-.6,1,1,0,0,0-.6-1.31,1,1,0,0,0-1.32.6h-1.92a8.33,8.33,0,0,1-3.74-.85,5.83,5.83,0,0,1-1.93-1.36.38.38,0,0,0-.29-.12.35.35,0,0,0-.26.15,7.64,7.64,0,0,1-1.39,1.45,3.49,3.49,0,0,1-2.27.73l-.3.71A3.53,3.53,0,0,1,184.85,8.49Zm-.44-1.14a3.9,3.9,0,0,0,.86-.51,6.94,6.94,0,0,0,1.27-1.27,6.89,6.89,0,0,0,1.87,1.23,11.07,11.07,0,0,0,1.49.55,11.12,11.12,0,0,0-1.49.56,6.86,6.86,0,0,0-1.87,1.22,7.23,7.23,0,0,0-1.32-1.27,4.34,4.34,0,0,0-.86-.51Z" transform="translate(-65.17 -4.59)"/><path class="cls-1" d="M67.91,7.4a1.37,1.37,0,1,0-1.37,1.37A1.36,1.36,0,0,0,67.91,7.4Z" transform="translate(-65.17 -4.59)"/><path class="cls-1" d="M181.28,7.4a5.73,5.73,0,0,1,.82-2.81,5.73,5.73,0,0,1,.82,2.81,5.74,5.74,0,0,1-.82,2.82A5.74,5.74,0,0,1,181.28,7.4Z" transform="translate(-65.17 -4.59)"/><path class="cls-1" d="M67.64,7.4a5.73,5.73,0,0,1,.82-2.81,5.73,5.73,0,0,1,.82,2.81,5.74,5.74,0,0,1-.82,2.82A5.74,5.74,0,0,1,67.64,7.4Z" transform="translate(-65.17 -4.59)"/></svg>