<svg width="20" height="20" viewBox="0 0 20 20" fill="none" xmlns="http://www.w3.org/2000/svg">
<path d="M13.0287 12.0214C13.129 12.1212 13.1975 12.2484 13.2254 12.3871C13.2533 12.5258 13.2394 12.6696 13.1854 12.8004C13.1315 12.9311 13.0399 13.0429 12.9224 13.1216C12.8048 13.2003 12.6666 13.2423 12.5251 13.2423C12.3837 13.2423 12.2454 13.2003 12.1278 13.1216C12.0103 13.0429 11.9187 12.9311 11.8648 12.8004C11.8109 12.6696 11.797 12.5258 11.8249 12.3871C11.8528 12.2484 11.9212 12.1212 12.0215 12.0214C12.1554 11.8884 12.3364 11.8137 12.5251 11.8137C12.7138 11.8137 12.8949 11.8884 13.0287 12.0214ZM7.97869 7.97857C8.079 7.87885 8.14746 7.75158 8.17536 7.61291C8.20327 7.47423 8.18937 7.3304 8.13543 7.19963C8.0815 7.06887 7.98995 6.95706 7.87239 6.87838C7.75484 6.79971 7.61657 6.75771 7.47511 6.75771C7.33366 6.75771 7.19539 6.79971 7.07784 6.87838C6.96028 6.95706 6.86873 7.06887 6.81479 7.19963C6.76086 7.3304 6.74696 7.47423 6.77487 7.61291C6.80277 7.75158 6.87122 7.87885 6.97154 7.97857C7.10537 8.11161 7.28641 8.18628 7.47511 8.18628C7.66382 8.18628 7.84485 8.11161 7.97869 7.97857ZM19.0001 10.9857C19.22 11.2827 19.3766 11.6218 19.4601 11.9818C19.5437 12.3417 19.5524 12.7151 19.4858 13.0786C19.3228 13.4179 19.0914 13.7199 18.8063 13.9657C18.5211 14.2115 18.1883 14.3959 17.8287 14.5071C17.5073 14.6264 17.2115 14.8058 16.9573 15.0357C16.8183 15.3522 16.7361 15.6907 16.7144 16.0357C16.7196 16.4109 16.6467 16.7831 16.5003 17.1286C16.354 17.4741 16.1374 17.7855 15.8644 18.0429C15.5391 18.219 15.1813 18.3269 14.8128 18.36C14.4444 18.3932 14.0731 18.3509 13.7215 18.2357C13.3808 18.1511 13.0282 18.1245 12.6787 18.1571C12.4065 18.3331 12.1652 18.5527 11.9644 18.8071C11.7414 19.1349 11.4506 19.411 11.1117 19.6168C10.7729 19.8225 10.3938 19.9532 10.0001 20C9.62055 19.9515 9.25514 19.8249 8.92691 19.6282C8.59868 19.4315 8.31474 19.169 8.09297 18.8571C7.88147 18.5997 7.62788 18.3799 7.34297 18.2071C6.99345 18.1709 6.64025 18.1975 6.30011 18.2857C5.94858 18.4009 5.57725 18.4432 5.20882 18.41C4.84038 18.3769 4.48258 18.269 4.15726 18.0929C3.87672 17.8341 3.65406 17.519 3.50388 17.1682C3.3537 16.8173 3.27939 16.4387 3.28583 16.0571C3.26409 15.7122 3.18189 15.3737 3.04297 15.0571C2.78021 14.8241 2.47449 14.6445 2.14297 14.5286C1.78332 14.4173 1.45051 14.233 1.16537 13.9872C0.880225 13.7413 0.648886 13.4393 0.485828 13.1C0.419249 12.7365 0.428005 12.3632 0.511553 12.0032C0.595101 11.6432 0.751662 11.3042 0.971542 11.0071C1.18807 10.7044 1.34336 10.3623 1.42869 10C1.35823 9.64929 1.22255 9.31492 1.02869 9.01429C0.808805 8.71725 0.652243 8.37824 0.568695 8.01825C0.485147 7.65826 0.476392 7.28494 0.542971 6.92143C0.697335 6.58383 0.918792 6.28117 1.19386 6.03189C1.46893 5.78261 1.79185 5.59192 2.14297 5.47143C2.46437 5.35216 2.76011 5.17277 3.0144 4.94286C3.15331 4.62633 3.23552 4.28784 3.25726 3.94286C3.25574 3.56555 3.33311 3.19208 3.48441 2.84643C3.63571 2.50078 3.8576 2.19057 4.13583 1.93571C4.46115 1.75962 4.81895 1.65169 5.18739 1.61853C5.55582 1.58537 5.92715 1.62768 6.27869 1.74286C6.61882 1.8311 6.97202 1.85771 7.32154 1.82143C7.60646 1.64867 7.86004 1.4289 8.07154 1.17143C8.29287 0.85183 8.57895 0.582369 8.91121 0.380552C9.24347 0.178734 9.61447 0.049076 10.0001 0C10.3797 0.048515 10.7451 0.175105 11.0733 0.371798C11.4015 0.56849 11.6855 0.831022 11.9073 1.14286C12.108 1.39729 12.3494 1.6169 12.6215 1.79286C12.9711 1.82914 13.3243 1.80253 13.6644 1.71429C14.0159 1.59911 14.3873 1.5568 14.7557 1.58996C15.1241 1.62312 15.4819 1.73105 15.8073 1.90714C16.0943 2.16264 16.3236 2.47632 16.48 2.82732C16.6364 3.17832 16.7163 3.55859 16.7144 3.94286C16.7361 4.28784 16.8183 4.62633 16.9573 4.94286C17.22 5.17591 17.5257 5.35545 17.8573 5.47143C18.2169 5.58271 18.5497 5.76703 18.8349 6.01284C19.12 6.25865 19.3513 6.56067 19.5144 6.9C19.581 7.26351 19.5722 7.63683 19.4887 7.99682C19.4051 8.35682 19.2486 8.69582 19.0287 8.99286C18.8122 9.29559 18.6569 9.63771 18.5715 10C18.6508 10.3527 18.7962 10.6872 19.0001 10.9857ZM5.95726 8.99286C6.25724 9.2918 6.63907 9.49515 7.05454 9.57723C7.47001 9.65931 7.90048 9.61644 8.29161 9.45403C8.68273 9.29162 9.01696 9.01696 9.25209 8.66473C9.48722 8.3125 9.61271 7.8985 9.61271 7.475C9.61271 7.0515 9.48722 6.6375 9.25209 6.28527C9.01696 5.93304 8.68273 5.65838 8.29161 5.49597C7.90048 5.33356 7.47001 5.2907 7.05454 5.37278C6.63907 5.45485 6.25724 5.6582 5.95726 5.95714C5.75749 6.15622 5.59898 6.39278 5.49082 6.65325C5.38267 6.91371 5.327 7.19297 5.327 7.475C5.327 7.75703 5.38267 8.03629 5.49082 8.29675C5.59898 8.55722 5.75749 8.79378 5.95726 8.99286ZM14.043 6.97143C14.1775 6.83693 14.253 6.6545 14.253 6.46429C14.253 6.27407 14.1775 6.09165 14.043 5.95714C13.9085 5.82264 13.726 5.74708 13.5358 5.74708C13.3456 5.74708 13.1632 5.82264 13.0287 5.95714L5.95726 13.0286C5.89031 13.095 5.83717 13.174 5.80091 13.261C5.76464 13.3481 5.74597 13.4414 5.74597 13.5357C5.74597 13.63 5.76464 13.7234 5.80091 13.8104C5.83717 13.8975 5.89031 13.9765 5.95726 14.0429C6.02366 14.1098 6.10266 14.1629 6.1897 14.1992C6.27674 14.2355 6.37011 14.2541 6.4644 14.2541C6.55869 14.2541 6.65205 14.2355 6.7391 14.1992C6.82614 14.1629 6.90514 14.1098 6.97154 14.0429L14.043 6.97143ZM14.043 11.0071C13.743 10.7082 13.3612 10.5049 12.9457 10.4228C12.5302 10.3407 12.0997 10.3836 11.7086 10.546C11.3175 10.7084 10.9833 10.983 10.7481 11.3353C10.513 11.6875 10.3875 12.1015 10.3875 12.525C10.3875 12.9485 10.513 13.3625 10.7481 13.7147C10.9833 14.067 11.3175 14.3416 11.7086 14.504C12.0997 14.6664 12.5302 14.7093 12.9457 14.6272C13.3612 14.5451 13.743 14.3418 14.043 14.0429C14.2427 13.8438 14.4013 13.6072 14.5094 13.3468C14.6176 13.0863 14.6732 12.807 14.6732 12.525C14.6732 12.243 14.6176 11.9637 14.5094 11.7032C14.4013 11.4428 14.2427 11.2062 14.043 11.0071Z" fill="#FB813E"/>
</svg>
