<svg width="64" height="64" viewBox="0 0 64 64" fill="none" xmlns="http://www.w3.org/2000/svg">
<circle cx="32" cy="32" r="32" fill="#FDFF92"/>
<mask id="mask0" mask-type="alpha" maskUnits="userSpaceOnUse" x="0" y="0" width="64" height="64">
<circle cx="32" cy="32" r="32" fill="#2959AE"/>
</mask>
<g mask="url(#mask0)">
<path d="M18.8501 33.8396C16.0831 38.3058 20.0031 42.7793 22.3089 44.4577C27.8813 45.6983 39.5643 47.4352 41.7164 44.4577C43.8685 41.4803 45.1751 36.3573 45.5595 34.168C37.8093 32.1977 21.6171 29.3735 18.8501 33.8396Z" fill="#1A253C"/>
<path d="M32.3805 41.2204C34.1026 41.2197 40.1776 41.3517 46.0246 43.0878C54.2296 45.5235 58.5692 50.0613 58.5764 56.2087L32.3805 83.7966L5.42383 56.2087C5.42881 50.2017 9.59211 45.7199 17.4645 43.2476C23.4409 41.3702 29.78 41.2217 31.5806 41.2207C31.781 41.2207 31.9207 41.222 31.9947 41.2237C32.0471 41.222 32.1853 41.2207 32.3805 41.2204Z" fill="#BD4545"/>
</g>
<path d="M21.1523 38.9711C15.5399 36.808 8.60694 37.8895 5.96582 44.6492C12.5686 45.7308 18.7753 44.5951 21.1523 38.9711Z" fill="#1A253C"/>
<path d="M42.8468 38.9711C48.4591 36.808 55.3921 37.8895 58.0332 44.6492C51.4304 45.7308 45.2238 44.5951 42.8468 38.9711Z" fill="#1A253C"/>
<path d="M39.7241 16.808C36.4247 15.3005 32.9966 15.1859 32.0249 15.1865C31.9147 15.1868 31.8368 15.1879 31.8072 15.1894C31.7654 15.1879 31.6866 15.1868 31.5735 15.1868C30.5574 15.1876 26.9803 15.3165 23.6079 16.9468C19.1597 19.0964 16.81 22.9956 16.8135 28.2222C16.8175 33.8704 18.7207 37.778 22.4695 39.8398C25.605 41.564 29.2558 41.5614 31.4361 41.56L32.1988 41.5594C35.2066 41.5574 40.8043 41.5533 44.1822 37.2878C45.9265 35.086 46.8096 32.0292 46.807 28.2013C46.8029 22.8632 44.3541 18.923 39.7241 16.808Z" fill="#FFC68D"/>
<path d="M35.5557 30.3641C35.5557 30.3641 35.637 30.3307 35.7808 30.2811C35.9249 30.2361 36.1297 30.1604 36.3768 30.0883C36.8709 29.9406 37.5323 29.7739 38.1965 29.6387C38.8606 29.5046 39.5273 29.4007 40.0296 29.3484C40.2802 29.319 40.4908 29.3114 40.6373 29.2981C40.7844 29.288 40.8685 29.288 40.8685 29.288L40.9794 30.6084C40.9794 30.6084 40.8972 30.6386 40.7529 30.6817C40.6086 30.7215 40.4031 30.7884 40.155 30.8487C39.659 30.9764 38.9954 31.1136 38.3287 31.2199C37.6621 31.3246 36.993 31.3982 36.4891 31.4304C36.2374 31.4486 36.0262 31.4486 35.8791 31.4558C35.7315 31.4594 35.6469 31.4562 35.6469 31.4562L35.5557 30.3641Z" fill="#2E343A"/>
<path d="M28.9477 31.456C28.9477 31.456 28.8546 31.4592 28.6925 31.4564C28.5307 31.4495 28.2985 31.4503 28.0216 31.4317C27.4672 31.4009 26.7309 31.3281 25.9975 31.2241C25.2639 31.1189 24.5336 30.9822 23.9879 30.8555C23.7147 30.7944 23.4887 30.7276 23.3299 30.6884C23.1711 30.6451 23.0811 30.6152 23.0811 30.6152L23.201 29.288C23.201 29.288 23.2938 29.2876 23.4556 29.2973C23.617 29.3103 23.8484 29.3176 24.1244 29.3467C24.6767 29.3985 25.4106 29.5017 26.1412 29.6348C26.8719 29.7691 27.5995 29.935 28.1433 30.0827C28.4154 30.1547 28.6407 30.2304 28.7992 30.2753C28.9574 30.3247 29.0472 30.3582 29.0472 30.3582L28.9477 31.456Z" fill="#2E343A"/>
<path d="M32.271 3.25427C28.1171 3.25427 24.9357 6.37473 23.8643 7.93496C30.9853 15.1744 38.0404 10.9514 40.6778 7.93496C39.6064 6.37473 36.425 3.25427 32.271 3.25427Z" fill="#FFA0D4"/>
<path d="M40.6787 16.2712C35.4047 13.5492 29.1392 13.5492 23.8652 16.2712L23.8652 7.59327C29.1392 4.87121 35.4047 4.87121 40.6787 7.59328L40.6787 16.2712Z" fill="#1A253C"/>
<path d="M25.2488 20.0901L24.1811 20.7368L23.1484 14.6399C24.4443 13.8924 27.1454 12.3973 27.5827 12.3973H36.3297L40.6425 14.4297L40.0351 20.7368L38.6122 19.9707C37.757 19.5103 36.8042 19.3471 35.87 19.5011L32.2649 20.0953C32.2213 20.1025 32.177 20.1028 32.1334 20.0962L28.1362 19.4947C27.1435 19.3453 26.1351 19.5533 25.2488 20.0901Z" fill="#E452A2"/>
<path d="M27.0972 15.0603C28.1404 15.2791 30.8108 18.4074 32.1058 20.0563C32.1557 20.1197 32.2421 20.1167 32.2899 20.0512C33.8658 17.8912 35.8455 16.2184 36.9916 15.3958C37.2649 15.1997 37.6199 15.3076 37.7859 15.6256C44.5819 28.6457 42.5483 44.4098 40.3678 51.8619C40.2837 52.1494 40.5496 52.324 40.696 52.0719C42.011 49.8074 43.1558 45.9245 43.6194 44.0033C43.9068 49.3574 42.8551 56.0564 42.0336 60.0051C41.9422 60.4443 42.4184 60.7214 42.6494 60.3567C47.7718 52.2675 49.128 40.979 49.147 36.0842C50.0756 37.8972 50.2954 42.0923 50.2744 45.4314C50.2723 45.7732 50.6739 45.8324 50.7217 45.4951C52.1355 35.5174 52.9457 18.0123 41.8331 7.64765C41.0415 6.90936 39.9909 6.664 39.0386 7.07887C38.0507 7.5093 36.9841 8.07526 36.2672 8.48177C36.0391 8.61109 34.3727 8.65731 34.1205 8.62183C32.5594 8.40229 31.2564 8.54671 30.4707 8.72521C30.1006 8.80928 28.2992 8.74713 27.9775 8.52003C26.8272 7.70804 25.7056 7.18536 24.8358 6.87407C23.9898 6.57127 23.0872 6.8174 22.3801 7.43293C10.8124 17.5016 11.8027 35.4615 13.4706 45.7021C13.5235 46.0271 13.9008 45.9754 13.9057 45.6447C13.9731 41.1162 14.2732 37.419 15.1307 36.1543C15.1307 48.2189 19.0697 56.8974 21.672 60.7131C21.9014 61.0495 22.3213 60.7915 22.2409 60.3737C20.7156 52.4489 20.5023 46.2243 20.5976 44.0033C21.3343 46.8249 22.1379 49.0504 22.7784 50.5736C22.9039 50.8721 23.1884 50.7189 23.1041 50.4018C18.2439 32.1295 25.8128 14.7909 27.0972 15.0603Z" fill="#FFA0D4"/>
<path d="M13.9449 45.872C13.9352 42.5731 14.2007 38.3191 15.1659 36.4346C15.0505 42.5583 16.4551 52.6649 21.7178 60.6296C21.9448 60.9732 22.3957 60.7294 22.3257 60.305C20.9456 51.9424 20.085 46.1819 21.058 33.7015C20.2162 36.2945 18.1767 43.1483 18.6626 49.5396C17.5519 47.3204 15.3881 41.8728 15.1659 36.4346C14.9473 34.5833 13.8502 33.6712 13.5157 35.4994C12.9641 38.5149 12.9542 42.105 13.5344 45.9283C13.5783 46.2175 13.9457 46.1656 13.9449 45.872Z" fill="#E452A2"/>
<path d="M50.2895 45.872C50.2992 42.5731 50.0337 38.3191 49.0685 36.4346C49.1839 42.5583 47.7793 52.6649 42.5166 60.6296C42.2895 60.9732 41.8386 60.7294 41.9087 60.305C43.2887 51.9424 44.1494 46.1819 43.1764 33.7015C44.0181 36.2945 46.0577 43.1483 45.5718 49.5396C46.6825 47.3204 48.8463 41.8728 49.0685 36.4346C49.2871 34.5833 50.3842 33.6712 50.7186 35.4994C51.2703 38.5149 51.2802 42.105 50.7 45.9283C50.6561 46.2175 50.2887 46.1656 50.2895 45.872Z" fill="#E452A2"/>
</svg>
